<svg width="316" height="316" viewBox="0 0 316 316" fill="none" xmlns="http://www.w3.org/2000/svg">
<rect width="315.526" height="315.526" rx="157.763" fill="#1F2A37"/>
<path d="M83.4393 199.285C90.6332 211.108 100.881 220.859 113.192 227.596C125.502 234.332 139.458 238.462 153.707 238.373L154.007 218.06C143.351 218.126 132.915 215.514 123.709 210.477C114.504 205.439 106.84 198.147 101.461 189.306L83.4393 199.285Z" fill="white"/>
<path d="M153.667 76.9969C142.484 76.438 131.307 78.2075 120.844 82.1935C110.38 86.1795 100.858 92.295 92.8813 100.153C84.9045 108.01 78.6463 117.439 74.5033 127.841C70.3603 138.244 68.4227 149.393 68.8132 160.583L89.1954 159.872C88.9033 151.504 90.3523 143.166 93.4504 135.388C96.5486 127.609 101.228 120.558 107.194 114.682C113.159 108.806 120.279 104.233 128.104 101.252C135.928 98.2714 144.287 96.9481 152.649 97.3661L153.667 76.9969Z" fill="white"/>
<rect x="71.4315" y="140.054" width="81.5035" height="20.3759" fill="white"/>
<rect x="135.107" y="140.054" width="19.1024" height="52.2132" fill="white"/>
<path d="M133.833 89.1149C133.833 82.4333 139.249 77.0167 145.931 77.0167H154.209V117.769H133.833V89.1149Z" fill="white"/>
<path d="M168.569 77.1517C189.256 78.3486 208.695 87.4412 222.873 102.553C237.051 117.665 244.887 137.643 244.764 158.365C244.64 179.086 236.567 198.97 222.21 213.912C207.853 228.854 188.944 237.715 168.244 238.665L167.945 218.292C183.425 217.581 196.767 210.955 207.504 199.782C218.24 188.608 224.277 173.739 224.369 158.243C224.462 142.748 218.602 127.808 207.999 116.508C197.397 105.207 183.498 98.4073 168.028 97.5123L168.569 77.1517Z" fill="white"/>
<path d="M167.718 77.017V77.017C178.971 77.017 188.094 86.1396 188.094 97.3929V192.493H167.718V77.017Z" fill="white"/>
</svg>
